<svg xmlns="http://www.w3.org/2000/svg" viewBox="0 0 48 48" width="48" height="48">
  <defs>
    <linearGradient id="canvaGrad" x1="0%" y1="0%" x2="100%" y2="100%">
      <stop offset="0%" stop-color="#8B3DFF"/>
      <stop offset="50%" stop-color="#00C4CC"/>
      <stop offset="100%" stop-color="#FF6F61"/>
    </linearGradient>
  </defs>
  <circle cx="24" cy="24" r="22" fill="url(#canvaGrad)"/>
  <path d="M24 13c-6.6 0-12 5-12 11.2 0 5.7 4.4 10.3 10 10.9v-4.2c-3.2-.6-5.6-3.4-5.6-6.7 0-3.8 3.1-6.8 7.1-6.8 3.4 0 6.2 2.2 6.9 5.1.1.5-.3 1-.9 1h-2.7c-.4-1.4-1.6-2.4-3.1-2.4-1.9 0-3.4 1.5-3.4 3.4s1.5 3.4 3.4 3.4c1.6 0 2.9-1.1 3.2-2.6h2.8c-.4 2.9-2.9 5.1-6 5.1v4.7c6.1-.5 11-5.5 11-11.6C36.7 18 31.2 13 24 13z" fill="#FFFFFF"/>
</svg>
